#N canvas -2 107 1024 673 10;
#N canvas -2 108 1024 673 netreceive 0;
#X obj 368 52 netreceive 3000;
#X obj 367 80 route pin0 pin1 pin2 pin3;
#X obj 365 123 s pin0;
#X obj 530 133 s pin3;
#X obj 479 131 s pin2;
#X obj 423 132 s pin1;
#X floatatom 414 186 5 0 0 0 - - -;
#X floatatom 468 189 5 0 0 0 - - -;
#X floatatom 519 190 5 0 0 0 - - -;
#X obj 361 162 r pin0;
#X obj 414 162 r pin1;
#X obj 468 162 r pin2;
#X obj 519 164 r pin3;
#X obj 369 108 hsl 12 8 0 80 0 0 empty empty empty -2 -8 0 10 -262144
-1 -1 0 1;
#X obj 416 110 hsl 12 8 0 80 0 0 empty empty empty -2 -8 0 10 -262144
-1 -1 0 1;
#X obj 456 111 hsl 12 8 0 80 0 0 empty empty empty -2 -8 0 10 -262144
-1 -1 0 1;
#X obj 499 108 hsl 12 8 0 80 0 0 empty empty empty -2 -8 0 10 -262144
-1 -1 0 1;
#X floatatom 363 198 5 0 0 0 - - -;
#X connect 0 0 1 0;
#X connect 1 0 13 0;
#X connect 1 1 14 0;
#X connect 1 2 15 0;
#X connect 1 3 16 0;
#X connect 9 0 17 0;
#X connect 10 0 6 0;
#X connect 11 0 7 0;
#X connect 12 0 8 0;
#X connect 13 0 2 0;
#X connect 14 0 5 0;
#X connect 15 0 4 0;
#X connect 16 0 3 0;
#X restore -105 149 pd netreceive;
#X obj 244 154 *~;
#X floatatom 244 79 0 0 20 0 - - -;
#X floatatom 154 114 0 695 696 0 - - -;
#X obj 154 174 +~;
#X text 271 214 <-- click to graph;
#X floatatom 266 134 0 100 500 0 - - -;
#X text 151 71 carrier;
#X text 150 89 frequency;
#X text 229 55 frequency;
#X text 230 38 modulation;
#X text 37 200 "carrier";
#X text 19 218 oscillator -->;
#X text 32 135 add modulator;
#X text 31 153 to carrier;
#X text 29 172 frequency -->;
#X text 305 146 index;
#X text 307 127 modulation;
#X obj 244 104 osc~;
#X text -158 339 test if less than 1 -->;
#X text -192 366 if true convert to bang -->;
#X text -230 392 previous nonzero master-lvl -->;
#X text -158 314 value of master-lvl -->;
#X obj 38 300 dbtorms;
#X obj 38 373 line~;
#X obj 314 519 dac~;
#X obj 38 330 pack 0 50;
#X text 130 349 audio in;
#X text 109 299 <-- convert from dB to linear units;
#X text 127 329 <-- make a ramp to avoid clicks or zipper noise;
#X obj 38 274 r \$0-master-out;
#X obj 94 395 hip~ 3;
#X obj 156 395 hip~ 3;
#N canvas 0 107 1024 673 soundlogic 0;
#X msg 358 163 \; pd dsp 1;
#X floatatom 382 72 3 80 100 0 dB - -;
#X obj 382 27 r \$0-master-lvl;
#X obj 382 132 s \$0-master-out;
#X floatatom 106 69 5 0 0 0 - - -;
#X floatatom 159 70 5 0 0 0 - - -;
#X obj 58 108 +;
#X floatatom 24 230 5 0 0 0 - - -;
#X msg 217 102 bang;
#X obj 305 108 metro 1;
#X obj 304 85 tgl 15 0 empty empty empty 17 7 0 10 -262144 -1 -1 1
1;
#X obj 152 98 +;
#X msg 236 127 bang;
#X obj 41 148 +;
#X obj 304 55 loadbang;
#X obj 106 42 r pin0;
#X obj 159 42 r pin1;
#X obj 82 251 expr if($f1>0 \, 80 \, 0) \;;
#X msg 840 180 \; pd dsp 1;
#X floatatom 864 89 3 80 100 0 dB - -;
#X floatatom 674 88 5 0 0 0 - - -;
#X floatatom 723 85 5 0 0 0 - - -;
#X obj 540 125 +;
#X floatatom 506 247 5 0 0 0 - - -;
#X msg 699 119 bang;
#X obj 787 125 metro 1;
#X obj 786 102 tgl 15 0 empty empty empty 17 7 0 10 -262144 -1 -1 1
1;
#X obj 634 115 +;
#X msg 718 144 bang;
#X obj 523 165 +;
#X obj 786 72 loadbang;
#X obj 674 61 r pin2;
#X obj 723 61 r pin3;
#X obj 564 268 expr if($f1>0 \, 80 \, 0) \;;
#X obj 864 149 s \$0-master-out1;
#X obj 864 44 r \$0-master-lvl1;
#X connect 1 0 0 0;
#X connect 1 0 3 0;
#X connect 2 0 1 0;
#X connect 4 0 6 0;
#X connect 5 0 6 1;
#X connect 6 0 13 0;
#X connect 8 0 6 0;
#X connect 9 0 8 0;
#X connect 9 0 12 0;
#X connect 10 0 9 0;
#X connect 11 0 13 1;
#X connect 12 0 11 0;
#X connect 13 0 7 0;
#X connect 13 0 17 0;
#X connect 14 0 10 0;
#X connect 15 0 4 0;
#X connect 16 0 5 0;
#X connect 17 0 1 0;
#X connect 19 0 18 0;
#X connect 19 0 34 0;
#X connect 20 0 27 0;
#X connect 21 0 27 1;
#X connect 22 0 29 0;
#X connect 24 0 22 0;
#X connect 25 0 24 0;
#X connect 25 0 28 0;
#X connect 26 0 25 0;
#X connect 27 0 29 1;
#X connect 28 0 27 0;
#X connect 29 0 23 0;
#X connect 29 0 33 0;
#X connect 30 0 26 0;
#X connect 31 0 20 0;
#X connect 32 0 21 0;
#X connect 33 0 19 0;
#X connect 35 0 19 0;
#X restore -108 187 pd soundlogic;
#X obj 109 40 loadbang;
#X msg 109 74 695;
#X obj 674 156 *~;
#X floatatom 674 81 0 0 20 0 - - -;
#X floatatom 584 116 0 0 1000 0 - - -;
#X obj 584 176 +~;
#X text 701 216 <-- click to graph;
#X floatatom 696 136 0 100 500 0 - - -;
#X text 581 73 carrier;
#X text 580 91 frequency;
#X text 659 57 frequency;
#X text 660 40 modulation;
#X text 467 202 "carrier";
#X text 449 220 oscillator -->;
#X text 462 137 add modulator;
#X text 461 155 to carrier;
#X text 459 174 frequency -->;
#X text 735 148 index;
#X text 737 129 modulation;
#X obj 674 106 osc~;
#X obj 468 302 dbtorms;
#X obj 468 375 line~;
#X obj 503 447 *~;
#X obj 468 332 pack 0 50;
#X text 560 351 audio in;
#X text 539 301 <-- convert from dB to linear units;
#X text 557 331 <-- make a ramp to avoid clicks or zipper noise;
#X obj 593 446 *~;
#X obj 524 397 hip~ 3;
#X obj 586 397 hip~ 3;
#X obj 539 42 loadbang;
#X text 235 387 frequency;
#X text 350 386 SLOPES (percent);
#X obj 134 229 osc~;
#X obj 583 221 osc~;
#X obj 319 -2 r pin0;
#X obj 369 59 r pin1;
#X obj 626 -34 r pin2;
#X obj 739 -13 r pin3;
#X obj 319 44 / 4;
#X obj 319 67 int;
#X obj 369 112 * 5;
#X obj 369 136 + 100;
#X obj 742 49 * 5;
#X obj 742 73 + 100;
#X floatatom 622 -11 5 0 80 0 - - -;
#X floatatom 740 19 5 0 80 0 - - -;
#X obj 625 18 / 4;
#X obj 625 41 int;
#X msg 539 76 770;
#X obj 163 444 *~;
#X obj 73 445 *~;
#X obj 468 276 r \$0-master-out1;
#X floatatom 319 21 5 0 0 0 - - -;
#X floatatom 370 87 5 0 0 0 - - -;
#X connect 1 0 4 1;
#X connect 2 0 18 0;
#X connect 3 0 4 0;
#X connect 4 0 67 0;
#X connect 6 0 1 1;
#X connect 18 0 1 0;
#X connect 23 0 26 0;
#X connect 24 0 84 0;
#X connect 24 0 85 0;
#X connect 26 0 24 0;
#X connect 30 0 23 0;
#X connect 31 0 85 1;
#X connect 32 0 84 1;
#X connect 34 0 35 0;
#X connect 35 0 3 0;
#X connect 36 0 39 1;
#X connect 37 0 53 0;
#X connect 38 0 39 0;
#X connect 39 0 68 0;
#X connect 41 0 36 1;
#X connect 53 0 36 0;
#X connect 54 0 57 0;
#X connect 55 0 61 0;
#X connect 55 0 56 0;
#X connect 56 0 25 0;
#X connect 57 0 55 0;
#X connect 61 0 25 1;
#X connect 62 0 56 1;
#X connect 63 0 61 1;
#X connect 64 0 83 0;
#X connect 67 0 31 0;
#X connect 67 0 32 0;
#X connect 68 0 62 0;
#X connect 68 0 63 0;
#X connect 69 0 87 0;
#X connect 70 0 88 0;
#X connect 71 0 79 0;
#X connect 72 0 80 0;
#X connect 73 0 74 0;
#X connect 74 0 2 0;
#X connect 75 0 76 0;
#X connect 76 0 6 0;
#X connect 77 0 78 0;
#X connect 78 0 41 0;
#X connect 79 0 81 0;
#X connect 80 0 77 0;
#X connect 81 0 82 0;
#X connect 82 0 37 0;
#X connect 83 0 38 0;
#X connect 84 0 25 1;
#X connect 85 0 25 0;
#X connect 86 0 54 0;
#X connect 87 0 73 0;
#X connect 88 0 75 0;
